<svg width="56" height="56" viewBox="0 0 56 56" fill="none" xmlns="http://www.w3.org/2000/svg">
<rect width="56" height="56" rx="14" fill="#2C3455"/>
<g clip-path="url(#clip0_4_707)">
<path d="M24.675 34.265L25.5383 30.8467" stroke="#6C7CFF" stroke-width="1.5" stroke-linecap="round" stroke-linejoin="round"/>
<path d="M30.4617 30.8467L31.3133 34.2767" stroke="#6C7CFF" stroke-width="1.5" stroke-linecap="round" stroke-linejoin="round"/>
<path d="M22.7967 19.8683C23.1195 18.8455 23.7591 17.9519 24.6231 17.3164C25.4871 16.681 26.5308 16.3367 27.6033 16.3333H28.3967C29.4692 16.3367 30.5129 16.681 31.3769 17.3164C32.2409 17.9519 32.8805 18.8455 33.2033 19.8683" stroke="#6C7CFF" stroke-width="1.5" stroke-linecap="round" stroke-linejoin="round"/>
<path d="M33.0283 26.81V26.845C32.9305 28.1116 32.3583 29.2946 31.4261 30.1576C30.4939 31.0206 29.2704 31.5 28 31.5C26.7296 31.5 25.5061 31.0206 24.5739 30.1576C23.6417 29.2946 23.0695 28.1116 22.9717 26.845V26.81" stroke="#6C7CFF" stroke-width="1.5" stroke-linecap="round" stroke-linejoin="round"/>
<path d="M32.8276 26.8333H23.1724C22.6074 26.8378 22.0631 26.6203 21.6568 26.2275C21.2506 25.8348 21.0147 25.2982 21 24.7333V21.9333C21.0147 21.3684 21.2506 20.8319 21.6568 20.4392C22.0631 20.0464 22.6074 19.8289 23.1724 19.8333H32.8934C33.4482 19.8424 33.9777 20.0664 34.3707 20.4581C34.7636 20.8498 34.9892 21.3786 35 21.9333V24.797C34.9716 25.3515 34.7295 25.8735 34.3244 26.2532C33.9193 26.6329 33.3828 26.8409 32.8276 26.8333Z" stroke="#6C7CFF" stroke-width="1.5" stroke-linecap="round" stroke-linejoin="round"/>
<path d="M25.6667 22.75H30.3333" stroke="#6C7CFF" stroke-width="1.5" stroke-linecap="round" stroke-linejoin="round"/>
<path d="M17.5 38.5V38.052C17.4999 37.2428 17.7803 36.4585 18.2934 35.8327C18.8064 35.2069 19.5205 34.7783 20.314 34.6197L24.0625 33.8695L24.4265 34.1122C25.4846 34.8179 26.7281 35.1946 28 35.1946C29.2719 35.1946 30.5154 34.8179 31.5735 34.1122L31.9375 33.8695L35.686 34.6197C36.4795 34.7783 37.1936 35.2069 37.7066 35.8327C38.2197 36.4585 38.5001 37.2428 38.5 38.052V38.5" stroke="#6C7CFF" stroke-width="1.5" stroke-linecap="round" stroke-linejoin="round"/>
</g>
<defs>
<clipPath id="clip0_4_707">
<rect width="28" height="28" fill="white" transform="translate(14 14)"/>
</clipPath>
</defs>
</svg>
