<svg width="56" height="56" viewBox="0 0 56 56" fill="none" xmlns="http://www.w3.org/2000/svg">
<rect width="56" height="56" rx="14" fill="#274255"/>
<g clip-path="url(#clip0_4_722)">
<path d="M28 17.5C30.0767 17.5 32.1068 18.1158 33.8335 19.2696C35.5602 20.4233 36.906 22.0632 37.7007 23.9818C38.4955 25.9004 38.7034 28.0116 38.2982 30.0484C37.8931 32.0852 36.8931 33.9562 35.4246 35.4246C33.9562 36.8931 32.0852 37.8931 30.0484 38.2982C28.0116 38.7034 25.9004 38.4955 23.9818 37.7007C22.0632 36.906 20.4233 35.5602 19.2696 33.8335C18.1158 32.1068 17.5 30.0767 17.5 28C17.5 25.2152 18.6062 22.5445 20.5754 20.5754C22.5445 18.6062 25.2152 17.5 28 17.5Z" stroke="#2AFFFF" stroke-width="1.5" stroke-linecap="round" stroke-linejoin="round"/>
<path d="M30.975 32.4135L27.4948 38.5" stroke="#2AFFFF" stroke-width="1.5" stroke-linecap="round" stroke-linejoin="round"/>
<path d="M19.1683 22.33L22.6788 28.35" stroke="#2AFFFF" stroke-width="1.5" stroke-linecap="round" stroke-linejoin="round"/>
<path d="M23.87 32.725C25.1587 32.725 26.2033 31.6803 26.2033 30.3917C26.2033 29.103 25.1587 28.0583 23.87 28.0583C22.5813 28.0583 21.5367 29.103 21.5367 30.3917C21.5367 31.6803 22.5813 32.725 23.87 32.725Z" stroke="#2AFFFF" stroke-width="1.5" stroke-linecap="round" stroke-linejoin="round"/>
<path d="M32.1347 32.725C33.4233 32.725 34.468 31.6803 34.468 30.3917C34.468 29.103 33.4233 28.0583 32.1347 28.0583C30.846 28.0583 29.8013 29.103 29.8013 30.3917C29.8013 31.6803 30.846 32.725 32.1347 32.725Z" stroke="#2AFFFF" stroke-width="1.5" stroke-linecap="round" stroke-linejoin="round"/>
<path d="M28 25.5617C29.2887 25.5617 30.3333 24.517 30.3333 23.2283C30.3333 21.9397 29.2887 20.895 28 20.895C26.7113 20.895 25.6667 21.9397 25.6667 23.2283C25.6667 24.517 26.7113 25.5617 28 25.5617Z" stroke="#2AFFFF" stroke-width="1.5" stroke-linecap="round" stroke-linejoin="round"/>
<path d="M30.3333 23.2283H37.3567" stroke="#2AFFFF" stroke-width="1.5" stroke-linecap="round" stroke-linejoin="round"/>
</g>
<defs>
<clipPath id="clip0_4_722">
<rect width="28" height="28" fill="white" transform="translate(14 14)"/>
</clipPath>
</defs>
</svg>
