<svg width="57" height="56" viewBox="0 0 57 56" fill="none" xmlns="http://www.w3.org/2000/svg">
<rect x="0.5" width="56" height="56" rx="14" fill="#3D413F"/>
<g clip-path="url(#clip0_4_737)">
<path d="M40.1667 24.5001H39.5834" stroke="#FFF629" stroke-width="1.5" stroke-linecap="round" stroke-linejoin="round"/>
<path d="M40.1667 28.0001H39.5834" stroke="#FFF629" stroke-width="1.5" stroke-linecap="round" stroke-linejoin="round"/>
<path d="M40.1667 31.5001H39.5834" stroke="#FFF629" stroke-width="1.5" stroke-linecap="round" stroke-linejoin="round"/>
<path d="M32.1296 19.8333H24.8704C22.3646 19.8333 20.3333 21.8646 20.3333 24.3704V31.6296C20.3333 34.1354 22.3646 36.1667 24.8704 36.1667H32.1296C34.6354 36.1667 36.6667 34.1354 36.6667 31.6296V24.3704C36.6667 21.8646 34.6354 19.8333 32.1296 19.8333Z" stroke="#FFF629" stroke-width="1.5" stroke-linecap="round" stroke-linejoin="round"/>
<path d="M17.4167 24.5L16.8334 24.5" stroke="#FFF629" stroke-width="1.5" stroke-linecap="round" stroke-linejoin="round"/>
<path d="M17.4167 28L16.8334 28" stroke="#FFF629" stroke-width="1.5" stroke-linecap="round" stroke-linejoin="round"/>
<path d="M17.4167 31.5L16.8334 31.5" stroke="#FFF629" stroke-width="1.5" stroke-linecap="round" stroke-linejoin="round"/>
<path d="M25.0001 16.3334V16.9167" stroke="#FFF629" stroke-width="1.5" stroke-linecap="round" stroke-linejoin="round"/>
<path d="M28.5001 16.3334V16.9167" stroke="#FFF629" stroke-width="1.5" stroke-linecap="round" stroke-linejoin="round"/>
<path d="M32.0001 16.3334V16.9167" stroke="#FFF629" stroke-width="1.5" stroke-linecap="round" stroke-linejoin="round"/>
<path d="M25.0001 39.0834V39.6667" stroke="#FFF629" stroke-width="1.5" stroke-linecap="round" stroke-linejoin="round"/>
<path d="M28.5001 39.0834V39.6667" stroke="#FFF629" stroke-width="1.5" stroke-linecap="round" stroke-linejoin="round"/>
<path d="M32.0001 39.0834V39.6667" stroke="#FFF629" stroke-width="1.5" stroke-linecap="round" stroke-linejoin="round"/>
<path d="M24.7646 29.575H28.8098" stroke="#FFF629" stroke-width="1.5" stroke-linecap="round" stroke-linejoin="round"/>
<path d="M29.1568 30.625L27.4558 25.375H26.1328L24.4318 30.625" stroke="#FFF629" stroke-width="1.5" stroke-linecap="round" stroke-linejoin="round"/>
<path d="M32.0438 30.625V25.375" stroke="#FFF629" stroke-width="1.5" stroke-linecap="round" stroke-linejoin="round"/>
</g>
<defs>
<clipPath id="clip0_4_737">
<rect width="28" height="28" fill="white" transform="translate(14.5 14)"/>
</clipPath>
</defs>
</svg>
